<svg xmlns="http://www.w3.org/2000/svg" xmlns:xlink="http://www.w3.org/1999/xlink" width="32" height="32" viewBox="0 0 32 32">
  <defs>
    <clipPath id="clip-Artboard_5">
      <rect width="32" height="32"/>
    </clipPath>
  </defs>
  <g id="Artboard_5" data-name="Artboard – 5" clip-path="url(#clip-Artboard_5)">
    <g id="Qyrus_White_logo_" data-name="Qyrus (White logo)" transform="translate(-202.033 -128.007)">
      <path id="Path_24588" data-name="Path 24588" d="M203.882,139.939a13.371,13.371,0,0,1,3-6.783,14.343,14.343,0,0,1,8.559-4.923,15.85,15.85,0,0,1,1.672-.2c.42-.028.839-.038,1.258-.026a14.858,14.858,0,0,1,4.449.8,14.351,14.351,0,0,1,2.9,1.382,14.64,14.64,0,0,1,1.778,1.312,13.53,13.53,0,0,1,4.609,8.32c.055.366.087.735.111,1.105.021.328.039.657.031.986a13.512,13.512,0,0,1-1.172,5.276,13.764,13.764,0,0,1-3.842,5,.252.252,0,0,0-.053.337l2.475,3.727,2.345,3.537a.8.8,0,0,1,.046.069c.053.1.04.126-.065.134a1.468,1.468,0,0,1-.15,0c-1.224,0-2.448,0-3.672,0a.429.429,0,0,1-.414-.215q-1.784-2.71-3.582-5.412c-.015-.023-.033-.045-.046-.069-.053-.1-.126-.109-.23-.063-.294.122-.586.244-.888.352a14.57,14.57,0,0,1-3.162.757c-.391.048-.782.063-1.167.107h-.065c-.208,0-.236-.019-.239-.218,0-.413,0-.825-.006-1.237-.011-.472-.033-.946,0-1.418.006-.082,0-.165,0-.247a.2.2,0,0,1,.177-.178c.247-.025.495-.048.742-.074a10.914,10.914,0,0,0,2.82-.712c.077-.03.168-.107.236-.063.089.059.014.166,0,.247a2.232,2.232,0,0,0,1.8,2.544,2.376,2.376,0,0,0,2.837-1.859,2.226,2.226,0,0,0-1.693-2.526c-.072-.02-.158-.013-.209-.088.017-.082.089-.122.146-.17a10.272,10.272,0,0,0,3.468-6.434,10.077,10.077,0,0,0-1.172-6.181,9.2,9.2,0,0,0-1.029-1.529,10.847,10.847,0,0,0-6.212-3.779,11.185,11.185,0,0,0-6.937.74,10.669,10.669,0,0,0-4.763,4.2,10.1,10.1,0,0,0-1.327,3.58c-.04.237-.065.475-.1.713-.025.183-.036.2-.225.2-.47,0-.939,0-1.409,0h-1.547a.162.162,0,0,1-.117-.049.15.15,0,0,1-.042-.117Z" transform="translate(0 0)" fill="#007ed9"/>
      <path id="Yellow_Dot_1" data-name="Yellow Dot 1" d="M503.22,489.165a1.438,1.438,0,0,1-1.034-.4,1.335,1.335,0,0,1-.413-1,1.418,1.418,0,0,1,1.448-1.382,1.44,1.44,0,0,1,1.447,1.382A1.415,1.415,0,0,1,503.22,489.165Z" transform="translate(-278.556 -335.874)" fill="#ffcf00"/>
      <path id="Path_24590" data-name="Path 24590" d="M216.65,375.42v5.763c0,.31,0,.318-.32.267a15.116,15.116,0,0,1-2.781-.708c-.181-.063-.2-.179-.2-.335q0-2.738,0-5.475v-2.038c-.009-.135-.028-.155-.162-.164-.071-.005-.142,0-.214,0h-7.388c-.375,0-.333.016-.45-.308a13.3,13.3,0,0,1-.7-2.859c-.027-.207.012-.251.246-.251q1.442,0,2.882,0h8.689c.395,0,.395,0,.395.388Z" transform="translate(-0.576 -226.148)" fill="#007ed9"/>
    </g>
  </g>
</svg>
