<svg id="Layer_1" data-name="Layer 1" xmlns="http://www.w3.org/2000/svg" viewBox="0 0 2509.68 765.52"><defs><style>.cls-1{fill:#ffcf00;}.cls-2{fill:#007ed9;}</style></defs><path class="cls-1" d="M2111.44,388.43a21.62,21.62,0,0,1-22.19-22.17c.13-14,11.65-21.87,22.19-22,10.79-.11,22.1,9,22.2,22S2122.29,389.17,2111.44,388.43Z"/><path class="cls-2" d="M1109.7,383.34V136.89c0-6.65-.34-6.16,6.28-6.16q91.18,0,182.38,0a171.49,171.49,0,0,1,64.29,11.83,152.29,152.29,0,0,1,43.11,26.31c14.49,12.45,26.37,27,34.9,44.09a139.45,139.45,0,0,1,13.79,47.86,175.54,175.54,0,0,1,1.16,21.86c-.68,33.84-10.63,64.4-32.63,90.51-20.75,24.63-46.59,41.52-77.79,50-4.45,1.21-4.48,1.21-2.06,5.24q44.82,74.64,89.64,149.28,16.43,27.35,32.91,54.68c.17.28.34.55.5.84,1.45,2.67,1.2,3.18-1.9,3.18-18.23,0-36.45,0-54.68.06-2.32,0-3.51-1-4.62-2.89q-19.68-33-39.46-66-33.12-55.32-66.23-110.65c-4.82-8.05-9.73-16.05-14.35-24.21-1.6-2.82-3.44-3.87-6.73-3.85-24.44.14-48.89.08-73.34.07-5.35,0-5.34,0-5.36-5.45,0-9.82,0-19.64-.13-29.46,0-4-.63-8-.45-12.09,0-.87,0-1.74.14-2.61a1.71,1.71,0,0,1,1.74-1.62c1.2-.07,2.4-.08,3.6-.08,31,0,62,.14,93-.06,17.5-.11,34.55-2.93,50.59-10.39a95.73,95.73,0,0,0,22.67-14.78A98.41,98.41,0,0,0,1388,332.83a82.86,82.86,0,0,0,13.59-35.78c2.28-17.51,1.69-34.84-4.4-51.66a87.91,87.91,0,0,0-25.76-36.87,102.11,102.11,0,0,0-42-22,130.12,130.12,0,0,0-19.65-3.35c-6.65-.65-13.29-.54-19.94-.55q-61.39,0-122.79,0c-5.67,0-5.4-.19-5.4,5.33q0,220.92,0,441.85c0,7.16.53,6.55-6.51,6.56H1115.2c-1,0-2,0-3,0-2-.17-2.37-.52-2.51-2.63-.08-1.2,0-2.4,0-3.6Z"/><path class="cls-2" d="M1644.06,632.25c3.17-2.77,6.09-5.37,9.06-7.9,15.67-13.4,31.39-26.75,45.92-41.41a6.91,6.91,0,0,1,4.27-2.14,147.57,147.57,0,0,0,24.67-5,117.77,117.77,0,0,0,46.12-25.91,146.2,146.2,0,0,0,27-32.27,136,136,0,0,0,18-50.88,181,181,0,0,0,2-26.72q0-151.57,0-303.13c0-5.92-.85-6.29,6.27-6.27,14.52,0,29,0,43.56,0,.87,0,1.75,0,2.62,0,2.76.15,3.18.57,3.3,3.32,0,1,0,2,0,2.94q0,153,0,306.07c0,22.83-3.11,45.25-10.45,67a174.7,174.7,0,0,1-34.2,59.86c-11.25,12.85-23.56,24.56-37.71,34.23a180.39,180.39,0,0,1-51.31,24.21,206,206,0,0,1-37.58,7.08,229.88,229.88,0,0,1-34,.62c-8.37-.41-16.7-1.68-25-2.57A3.64,3.64,0,0,1,1644.06,632.25Z"/><path class="cls-2" d="M870.78,534.78V631c0,5.23,0,5.24-5.21,5.24H824.65c-.88,0-1.75,0-2.62,0-2-.17-2.39-.52-2.53-2.61-.08-1.2,0-2.4,0-3.6q0-92.79,0-185.56a16.11,16.11,0,0,0-2.6-9.18q-24.64-38.43-49-77-30.81-48.48-61.61-96.95l-61.61-97q-9.39-14.78-18.76-29.56c-.67-1.06-2-2.18-1.42-3.45s2.36-.7,3.6-.7c17.46,0,34.92,0,52.38-.08a6.06,6.06,0,0,1,5.82,3.21c10.6,16.78,21.32,33.49,32,50.22q24.94,39,49.89,78,19.14,29.91,38.29,59.8Q830.26,359,854,396.28a172,172,0,0,1,10.18,17.15,63.75,63.75,0,0,1,6.62,28.41Q870.71,488.31,870.78,534.78Z"/><path class="cls-2" d="M1492.91,293.92V136.49c0-5.84,0-5.84,5.71-5.85h43.88c.87,0,1.75,0,2.62.05,2.37.19,2.79.6,2.91,3,.07,1.3,0,2.61,0,3.92q0,152,0,304.06a159.32,159.32,0,0,0,7.83,50.53,127.94,127.94,0,0,0,30.74,50c10.52,10.68,22.11,19.74,35.7,26.18a139.15,139.15,0,0,0,22.85,7.93c3,.81,5.89,1.63,8.81,2.54,2,.62,2,1,.61,2.66-.43.49-.92.94-1.38,1.4-12.66,12.65-25.36,25.26-37.93,38-2.11,2.15-3.82,2.71-6.79,1.5a183.18,183.18,0,0,1-52.46-32.22q-43.65-38.36-57.19-94.84a223.17,223.17,0,0,1-5.43-36.84c-.57-8.18-.5-16.35-.5-24.52Q1492.87,364,1492.91,293.92Z"/><path class="cls-2" d="M1038.33,130.6h26.19c.33,0,.66,0,1,0,1,.08,2.16-.37,2.75.55s-.4,1.81-.9,2.6q-8.19,12.81-16.44,25.6-31.11,48.29-62.22,96.54-17.48,27.09-35,54.16-26.94,41.81-53.86,83.63c-2.45,3.81-2.49,3.82-5,0C886.27,380.43,877.7,367.14,869,354c-1.45-2.19-1.35-3.7,0-5.85q26.06-40.64,51.93-81.37L986.7,163.52c6.39-10,12.81-20,19.11-30.12a5.24,5.24,0,0,1,5-2.83C1020,130.66,1029.17,130.6,1038.33,130.6Z"/><path class="cls-2" d="M204.89,318a217.44,217.44,0,0,1,17.38-61.24A213.75,213.75,0,0,1,251,210a218.63,218.63,0,0,1,131.42-78.39,235.08,235.08,0,0,1,25.67-3.11c6.45-.44,12.89-.61,19.32-.41a220.88,220.88,0,0,1,68.31,12.81,217,217,0,0,1,44.58,22,225.42,225.42,0,0,1,27.3,20.89,217.65,217.65,0,0,1,70.77,132.48c.84,5.83,1.34,11.7,1.7,17.6.33,5.23.6,10.46.48,15.7-.67,29.15-6.39,57.22-18,84a218.4,218.4,0,0,1-59,79.62,4.12,4.12,0,0,0-.82,5.36q19,29.67,38,59.34l36,56.32a12.75,12.75,0,0,1,.7,1.1c.81,1.54.61,2-1,2.13a22,22,0,0,1-2.3,0c-18.79,0-37.59-.06-56.39.06a6.53,6.53,0,0,1-6.35-3.43q-27.4-43.15-55-86.18c-.23-.37-.5-.72-.71-1.1-.82-1.57-1.94-1.73-3.53-1-4.52,1.94-9,3.88-13.64,5.61a217.12,217.12,0,0,1-48.56,12.06c-6,.76-12,1-17.92,1.71-.33,0-.66,0-1,0-3.2,0-3.63-.31-3.67-3.47-.07-6.57.07-13.13-.09-19.69-.17-7.52-.5-15.06,0-22.57.09-1.3,0-2.62.06-3.93a3.06,3.06,0,0,1,2.72-2.84c3.8-.4,7.6-.76,11.4-1.18a162.74,162.74,0,0,0,43.3-11.34c1.19-.48,2.58-1.7,3.63-1,1.36.94.21,2.65,0,3.93-3,15.69,6.88,36.37,27.61,40.5,21.16,4.21,40.38-9.9,43.57-29.6,3.22-19.87-9.42-35.49-26-40.22-1.11-.32-2.43-.2-3.21-1.4.26-1.31,1.37-1.94,2.24-2.71a165.4,165.4,0,0,0,53.25-102.45c4.28-34.31-1.85-67.15-18-98.42a146.89,146.89,0,0,0-15.8-24.35q-37.83-47.25-95.39-60.17a166.14,166.14,0,0,0-106.52,11.79A165.89,165.89,0,0,0,277,263,164.52,164.52,0,0,0,256.63,320c-.61,3.77-1,7.57-1.53,11.36-.39,2.92-.55,3.12-3.45,3.14-7.21.05-14.42,0-21.63,0H206.26a2.44,2.44,0,0,1-2.44-2.64Z"/><path class="cls-1" d="M524,530.59a21.65,21.65,0,0,1-22.22-22.2c.14-14,11.67-21.9,22.23-22,10.8-.11,22.11,9,22.21,22S534.83,531.33,524,530.59Z"/><path class="cls-2" d="M392.09,466.59v91.76c0,4.94,0,5.06-4.92,4.25a225.31,225.31,0,0,1-42.71-11.27c-2.78-1-3.11-2.85-3.1-5.34q.06-43.59,0-87.17,0-14.91,0-29.83c0-.87,0-1.75,0-2.62-.14-2.15-.43-2.47-2.49-2.61-1.09-.08-2.18,0-3.28,0H222.15c-5.76,0-5.11.25-6.91-4.9a218.22,218.22,0,0,1-10.7-45.52c-.41-3.29.19-4,3.78-4q22.14-.06,44.26,0H386c6.06,0,6.06,0,6.06,6.17Z"/><path class="cls-2" d="M2079.19,387.52a1.13,1.13,0,0,0,1.29-1.65,36.24,36.24,0,0,1-5.38-19.62,35.09,35.09,0,0,1,18.81-31.41,1.13,1.13,0,0,0-.3-2.06c-73.33-20.48-87.36-41.81-87.36-75.56,0-64.17,77.52-71.1,110.85-71.1,69,0,109.89,26.79,121.47,79.64l3.59,16.39a1.13,1.13,0,0,0,1.11.89H2299a1.13,1.13,0,0,0,1.11-1.31l-3.85-24.15c-6.09-38.16-35.67-126.93-178.39-126.93-103.71,0-170.72,50.18-170.72,127.85C1947.1,336.92,2006.19,367.25,2079.19,387.52Z"/><path class="cls-2" d="M2143.05,345a1.14,1.14,0,0,0-1.25,1.71,35.12,35.12,0,0,1,6.09,19.56,36.75,36.75,0,0,1-18.59,31.94,1.13,1.13,0,0,0,.35,2.06c100.33,25.67,117.07,50.09,117.07,96.1,0,52.91-47.38,84.49-126.73,84.49-44.76,0-122.4-12.22-139.48-94.08l-3.46-16.61a1.13,1.13,0,0,0-1.1-.9h-57.46a1.13,1.13,0,0,0-1.11,1.35l4.85,24.86c17.48,89.51,89.3,140.85,197,140.85,54.83,0,101.06-12.56,133.7-36.34,34.61-25.21,52.9-61.49,52.9-104.89C2305.87,416.05,2261.35,374.41,2143.05,345Z"/></svg>