<svg xmlns="http://www.w3.org/2000/svg" width="120.61" height="120.88" viewBox="0 0 120.61 120.88"><path d="M26.68,26.77H51.91V51.89H26.68ZM35.67,1H23.07A22.72,22.72,0,0,0,14.3,2.75a23.13,23.13,0,0,0-7.49,5h0c-2.141,2.145-2.839,3.69-4,6.49A22.77,22.77,0,0,0,1,23.07V38.64h9.23V23.07a12.9,12.9,0,0,1,1-4.9A12.71,12.71,0,0,1,14,14h0a12.83,12.83,0,0,1,9.07-3.75h12.6ZM99.54,2H91.31v8.23h8.23a12.94,12.94,0,0,1,4.9,1A13.16,13.16,0,0,1,108.61,14l.35.36h0a13.07,13.07,0,0,1,2.45,3.82,12.67,12.67,0,0,1,1,4.89V38.64h8.23V23.07c0-5.941-.3-9.651-4.42-13.93h0l-.37-.37a23.16,23.16,0,0,0-7.49-5A22.77,22.77,0,0,0,99.54,2Zm22.07,97.81V82.52h-9.23V99.81a12.67,12.67,0,0,1-1,4.89,13.08,13.08,0,0,1-2.8,4.17,12.8,12.8,0,0,1-9.06,3.78H91.31v9.23h8.23a23,23,0,0,0,16.29-6.78,16.8,16.8,0,0,0,4-6.49,23,23,0,0,0,1.75-8.8ZM23.07,121.88h12.6v-9.23H23.07A12.8,12.8,0,0,1,14,108.87l-.26-.24a12.83,12.83,0,0,1-2.61-4.08,12.7,12.7,0,0,1-.91-4.74V82.52H1V99.81a22.64,22.64,0,0,0,1.67,8.57c1.1,2.747,1.731,4.253,3.79,6.38l.31.35a23.2,23.2,0,0,0,7.5,5,22.84,22.84,0,0,0,8.8,1.75Zm66.52-32.1H96v6.33H89.59Zm-12.36,0h6.44v6H70.8V83.47H77V77.22h6.34V64.76H89.8v6.12h6.12v6.33H89.8v6.33H77.23v6.23ZM58.14,77.12h6.23V70.79h-6V64.46h6V58.13H58.24v6.33H51.8V58.13h6.33V39.33h6.43V58.12h6.23v6.33h6.13V58.12h6.43v6.33H77.23v6.33H70.8V83.24H64.57V95.81H58.14Zm31.35-19h6.43v6.33H89.49V58.12Zm-50.24,0h6.43v6.33H39.25V58.12Zm-12.57,0h6.43v6.33H26.68V58.12ZM58.14,26.77h6.43V33.1H58.14ZM26.58,70.88H51.8V96H26.58ZM32.71,77h13V89.91h-13Zm38-50.22H95.92V51.89H70.7V26.77Zm6.13,6.1h13V45.79h-13V32.87Zm-44,0h13V45.79h-13V32.87Z" transform="translate(-1 -1)" fill="#007ed9" fill-rule="evenodd"/></svg>